<svg width="25" height="24" viewBox="0 0 25 24" fill="none" xmlns="http://www.w3.org/2000/svg">
<g clip-path="url(#clip0_2_126)">
<path fill-rule="evenodd" clip-rule="evenodd" d="M11.159 1.40598C11.6975 1.15962 12.2828 1.0321 12.875 1.0321C13.4672 1.0321 14.0525 1.15962 14.591 1.40598C18.474 3.18398 21.3665 5.72698 22.7595 7.09898C23.5105 7.83848 23.912 8.82448 23.9685 9.84198C24.0375 11.0955 24.125 13.1285 24.125 15.4215C24.125 17.0395 24.0815 18.5275 24.0315 19.7035C23.9951 20.607 23.6174 21.463 22.9746 22.099C22.3319 22.735 21.4718 23.1036 20.568 23.1305C18.829 23.1905 16.2445 23.25 12.875 23.25C9.5055 23.25 6.921 23.19 5.182 23.1305C4.27817 23.1036 3.41814 22.735 2.77538 22.099C2.13261 21.463 1.75493 20.607 1.7185 19.7035C1.65737 18.277 1.62619 16.8493 1.625 15.4215C1.625 13.1285 1.7125 11.0955 1.7815 9.84198C1.838 8.82448 2.2395 7.83848 2.9905 7.09898C4.3835 5.72698 7.2765 3.18398 11.159 1.40598Z" fill="#D1D8EA"/>
<path fill-rule="evenodd" clip-rule="evenodd" d="M8.875 18C8.60978 18 8.35543 18.1054 8.16789 18.2929C7.98036 18.4804 7.875 18.7348 7.875 19C7.875 19.2652 7.98036 19.5196 8.16789 19.7071C8.35543 19.8946 8.60978 20 8.875 20H16.875C17.1402 20 17.3946 19.8946 17.5821 19.7071C17.7696 19.5196 17.875 19.2652 17.875 19C17.875 18.7348 17.7696 18.4804 17.5821 18.2929C17.3946 18.1054 17.1402 18 16.875 18H8.875Z" fill="#8B98BC"/>
</g>
<defs>
<clipPath id="clip0_2_126">
<rect width="24" height="24" fill="white" transform="translate(0.875)"/>
</clipPath>
</defs>
</svg>
