<svg width="25" height="24" viewBox="0 0 25 24" fill="none" xmlns="http://www.w3.org/2000/svg">
<circle cx="12" cy="12" r="5" fill="#8B98BC"/>
<path fill-rule="evenodd" clip-rule="evenodd" d="M22.2764 9.18634C22.4965 8.91117 22.625 8.58096 22.6479 8.22782C22.6708 7.87927 22.5929 7.53072 22.414 7.22803L21.7215 6.01726C21.5518 5.71916 21.295 5.48068 20.9877 5.32933C20.6804 5.17799 20.3318 5.12295 19.9925 5.16881L17.9516 5.48068L15.3879 4.02684L14.6449 2.10522C14.5211 1.7796 14.2964 1.49984 14.012 1.30263C13.7231 1.10542 13.3837 0.999939 13.0352 0.999939H12.3289H11.6226C11.2741 0.999939 10.9347 1.10542 10.6457 1.30263C10.3568 1.49984 10.1367 1.7796 10.0128 2.10522L9.2653 4.02684L6.7016 5.48068L4.66073 5.16881C4.32135 5.12295 3.9728 5.17799 3.66552 5.32933C3.35824 5.48068 3.10142 5.71916 2.93173 6.01726L2.23921 7.22803C2.06034 7.53072 1.97779 7.87927 2.00531 8.22782C2.02824 8.57638 2.16124 8.91117 2.37679 9.18634L3.67469 10.7961V13.7038L2.41348 15.3135C2.19334 15.5887 2.06493 15.9189 2.042 16.2721C2.01907 16.6206 2.09703 16.9692 2.2759 17.2719L2.96842 18.4826C3.13811 18.7807 3.39493 19.0192 3.70221 19.1705C4.00949 19.3219 4.35804 19.3769 4.69742 19.3311L6.73829 19.0192L9.2653 20.473L10.0083 22.3947C10.1321 22.7203 10.3568 23 10.6412 23.1972C10.9301 23.3945 11.2695 23.4999 11.618 23.4999H12.3243H13.0306C13.3791 23.4999 13.7185 23.3945 14.0074 23.1972C14.2964 23 14.5165 22.7203 14.6403 22.3947L15.3833 20.473L17.9103 19.0192L19.9512 19.3311C20.2906 19.3769 20.6391 19.3219 20.9464 19.1705C21.2537 19.0192 21.5105 18.7807 21.6802 18.4826L22.3727 17.2719C22.5516 16.9692 22.6341 16.6206 22.6066 16.2721C22.5837 15.9235 22.4507 15.5887 22.2351 15.3135L20.9785 13.7038V10.7961L22.2764 9.18634ZM15.6906 13.6579C15.5117 14.1074 15.2503 14.5155 14.9109 14.8595C14.5761 15.2035 14.1726 15.4786 13.7277 15.6667C13.2828 15.8547 12.8059 15.951 12.3243 15.951C11.8428 15.951 11.3658 15.8547 10.9209 15.6667C10.4761 15.4786 10.0725 15.2081 9.73768 14.8595C9.40288 14.5155 9.13688 14.1074 8.95802 13.6579C8.77916 13.2085 8.6966 12.7315 8.70578 12.2499C8.72871 11.3052 9.11854 10.4063 9.79271 9.74586C10.4669 9.08545 11.375 8.71396 12.3197 8.71396C13.2645 8.71396 14.1726 9.08545 14.8467 9.74586C15.5209 10.4063 15.9107 11.3052 15.9337 12.2499C15.9566 12.7315 15.8695 13.2085 15.6906 13.6579Z" fill="#D1D8EA"/>
</svg>
