<svg width="62" height="20" viewBox="0 0 62 20" fill="none" xmlns="http://www.w3.org/2000/svg">
<path fill-rule="evenodd" clip-rule="evenodd" d="M21.8937 19.7125L25.0172 0.338243H30.0095L26.8861 19.7125H21.8937ZM44.9948 0.812596C44.0075 0.424582 42.4555 0 40.5215 0C35.585 0 32.1111 2.62976 32.0827 6.39411C32.0512 9.17928 34.5611 10.7324 36.4544 11.6577C38.3996 12.6074 39.0537 13.2138 39.0456 14.063C39.0324 15.3601 37.4925 15.9543 36.0573 15.9543C34.0593 15.9543 32.9968 15.6618 31.3544 14.9385L30.7135 14.6298L30.0146 18.967C31.1787 19.5063 33.3361 19.9746 35.5768 20C40.8221 20 44.231 17.4017 44.2706 13.3814C44.2889 11.1732 42.9582 9.49924 40.0776 8.11783C38.3325 7.21889 37.262 6.62468 37.2741 5.71458C37.2752 4.91011 38.1782 4.04774 40.1345 4.04774C41.4193 4.01873 42.6948 4.27293 43.8704 4.79228L44.3183 5.01371L44.9948 0.812596ZM51.6418 12.8431C52.0563 11.7298 53.6307 7.42813 53.6307 7.42813C53.6022 7.47892 54.042 6.30574 54.2939 5.57948L54.6312 7.25038C54.6312 7.25038 55.589 11.8751 55.7871 12.8431H51.6418ZM57.8013 0.357543H53.9425C52.746 0.357543 51.8501 0.700864 51.3259 1.96343L43.912 19.7186H49.1563C49.1563 19.7186 50.0116 17.3306 50.2056 16.8065C50.7774 16.8065 55.8734 16.8167 56.5997 16.8167C56.749 17.4921 57.2081 19.7197 57.2081 19.7197H61.8409L57.8013 0.357543ZM17.7058 0.354496L12.8201 13.5632L12.296 10.8776C11.3849 7.78466 8.55094 4.43169 5.3808 2.75165L9.85007 19.6953L15.134 19.6922L22.9958 0.354496H17.7058Z" fill="#FFFFFE"/>
<path fill-rule="evenodd" clip-rule="evenodd" d="M8.28297 0.34124H0.233199L0.167175 0.74246C6.43127 2.34734 10.5755 6.22138 12.2952 10.8776L10.5471 1.97557C10.2444 0.747537 9.36778 0.383902 8.28398 0.340225" fill="#EC982D"/>
</svg>
